<?xml version="1.0" encoding="utf-8"?>
<!-- Generator: Adobe Illustrator 12.0.0, SVG Export Plug-In . SVG Version: 6.00 Build 51448)  -->
<!DOCTYPE svg PUBLIC "-//W3C//DTD SVG 1.1//EN" "http://www.w3.org/Graphics/SVG/1.1/DTD/svg11.dtd" [
	<!ENTITY ns_svg "http://www.w3.org/2000/svg">
	<!ENTITY ns_xlink "http://www.w3.org/1999/xlink">
]>
<svg  version="1.1" id="レイヤー_1" xmlns="&ns_svg;" xmlns:xlink="&ns_xlink;" width="841.89" height="595.275"
	 viewBox="0 0 841.89 595.275" overflow="visible" enable-background="new 0 0 841.89 595.275" xml:space="preserve">
<g>
	<g>
		<path d="M473.822,234.892c0,23.304,18.963,42.265,42.27,42.265s42.268-18.961,42.268-42.265c0-23.308-18.961-42.27-42.268-42.27
			S473.822,211.584,473.822,234.892z M489.674,234.892c0-14.57,11.85-26.419,26.418-26.419c14.566,0,26.418,11.849,26.418,26.419
			c0,14.565-11.852,26.415-26.418,26.415C501.523,261.307,489.674,249.457,489.674,234.892z"/>
		<path d="M227.276,192.622c-23.307,0-42.269,18.962-42.269,42.27c0,23.304,18.962,42.265,42.269,42.265
			c7.652,0,14.829-2.053,21.027-5.625v-20.713c-4.83,6.359-12.446,10.488-21.027,10.488c-14.566,0-26.418-11.85-26.418-26.415
			c0-14.57,11.852-26.419,26.418-26.419c14.568,0,26.418,11.849,26.418,26.419v41.095h15.85v-41.095
			C269.544,211.584,250.584,192.622,227.276,192.622z"/>
		<path d="M612.367,192.622c-23.311,0-42.27,18.962-42.27,42.27c0,23.304,18.959,42.265,42.27,42.265
			c7.648,0,14.828-2.053,21.025-5.625v-20.713c-4.828,6.359-12.445,10.488-21.025,10.488c-14.568,0-26.42-11.85-26.42-26.415
			c0-14.57,11.852-26.419,26.42-26.419c14.564,0,26.416,11.849,26.416,26.419v41.095h15.85v-41.095
			C654.633,211.584,635.672,192.622,612.367,192.622z"/>
		<path d="M419.818,192.622c-7.65,0-14.83,2.056-21.028,5.625v20.716c4.83-6.358,12.446-10.49,21.028-10.49
			c14.568,0,26.42,11.849,26.42,26.419c0,14.565-11.852,26.415-26.42,26.415c-14.567,0-26.418-11.85-26.418-26.415v-80.837H377.55
			v80.837c0,23.304,18.962,42.265,42.269,42.265c23.309,0,42.27-18.961,42.27-42.265
			C462.088,211.584,443.127,192.622,419.818,192.622z"/>
		<path d="M323.548,192.622c-23.307,0-42.268,18.962-42.268,42.27c0,23.304,18.961,42.265,42.268,42.265
			c7.65,0,14.828-2.053,21.025-5.625v-20.713c-4.829,6.359-12.444,10.488-21.025,10.488c-14.568,0-26.417-11.85-26.417-26.415
			c0-14.57,11.849-26.419,26.417-26.419c14.566,0,26.418,11.849,26.418,26.419v41.095c0,14.566-11.852,26.416-26.418,26.416
			c-11.41,0-21.122-7.281-24.813-17.432H282.25c4.13,19.006,21.074,33.283,41.298,33.283c23.307,0,42.268-18.961,42.268-42.268
			v-41.095C365.815,211.584,346.854,192.622,323.548,192.622z"/>
		<path d="M171.589,208.475v-15.853h-18.26v-21.229h-15.85v82.847c0,12.635,10.28,22.916,22.915,22.916h11.194v-15.85h-11.194
			c-3.895,0-7.065-3.17-7.065-7.066v-45.766H171.589z"/>
		<path d="M704.41,208.475v-15.853h-18.258v-21.229h-15.852v82.847c0,12.635,10.277,22.916,22.916,22.916h11.193v-15.85h-11.193
			c-3.898,0-7.064-3.17-7.064-7.066v-45.766H704.41z"/>
	</g>
	<g>
		<g>
			<path d="M237.755,356.521c-23.307,0-42.269,18.961-42.269,42.27c0,23.303,18.962,42.264,42.269,42.264
				c7.652,0,14.829-2.053,21.027-5.625v-20.713c-4.83,6.359-12.446,10.488-21.027,10.488c-14.566,0-26.418-11.85-26.418-26.414
				c0-14.57,11.852-26.42,26.418-26.42c14.568,0,26.418,11.85,26.418,26.42v41.094h15.85v-41.094
				C280.022,375.482,261.063,356.521,237.755,356.521z"/>
			<path d="M315.896,441.055h-15.85v-61.611c0-12.635,10.28-22.916,22.915-22.916h11.194v15.85h-11.194
				c-3.895,0-7.065,3.17-7.065,7.066V441.055z"/>
			<path d="M385.645,372.373v-15.852h-18.258v-21.229h-15.852v82.846c0,12.635,10.278,22.916,22.916,22.916h11.193v-15.85h-11.193
				c-3.898,0-7.064-3.17-7.064-7.066v-45.766H385.645z"/>
		</g>
		<g>
			<path d="M514.171,356.521c-23.307,0-42.268,18.961-42.268,42.27c0,23.303,18.961,42.264,42.268,42.264
				c7.652,0,14.83-2.053,21.027-5.625v-20.713c-4.83,6.359-12.445,10.488-21.027,10.488c-14.566,0-26.418-11.85-26.418-26.414
				c0-14.57,11.852-26.42,26.418-26.42c14.568,0,26.418,11.85,26.418,26.42v41.094h15.85v-41.094
				C556.438,375.482,537.479,356.521,514.171,356.521z"/>
			<path d="M628.144,441.055h-15.85v-61.611c0-12.635,10.279-22.916,22.914-22.916h11.195v15.85h-11.195
				c-3.895,0-7.064,3.17-7.064,7.066V441.055z"/>
			<rect x="576.442" y="356.529" width="15.848" height="84.525"/>
			<rect x="576.442" y="325.877" width="15.848" height="15.85"/>
			<path d="M462.47,356.473v15.854h-18.258v68.895H428.36v-97.598c0-12.635,10.279-22.916,22.916-22.916h11.193v15.85h-11.193
				c-3.898,0-7.064,3.17-7.064,7.066v12.85H462.47z"/>
		</g>
	</g>
</g>
<rect fill="none" width="841.89" height="595.275"/>
</svg>
